# xmcd
#
# Track frame offsets: 
#        150
#        11687
#        23214
#        33656
#        42832
#        59156
#        68881
#        78523
#        85975
#        96070
#        106276
#        114107
#        125574
#        134823
#        148605
#        158808
#        169375
#        183257
#        193278
#        203789
#        213864
#        224446
#        237378
#        248077
#        256331
#        266978
#        275943
#        286135
#
# Disc length: 3935 seconds
#
# Revision: 2
# Processed by: cddbd v1.5.2PL0 Copyright (c) Steve Scherf et al.
# Submitted via: ExactAudioCopyFreeDBPlugin 1.0
#
DISCID=b50f5d1c
DTITLE=Bronzemen - Radio Transcriptions: 1939
DYEAR=1996
DGENRE=Gospel
TTITLE0=Scandalize Ma Name
TTITLE1=Deep River
TTITLE2=I Been 'Buked
TTITLE3=Little David Play on Your Harp
TTITLE4=My Lawd, What a Mornin'
TTITLE5=Hold On (Keep Yo' Hand on the Plow)
TTITLE6=Ain't It a Shame?
TTITLE7=Good News
TTITLE8=Ol' Ark's A-Moverin'
TTITLE9=Ride on de King Jesus
TTITLE10=De Gospel Train
TTITLE11=Don't Touch My Garment
TTITLE12=Let's Go 'Round the Wall
TTITLE13=I Couldn't Hear Nobody Pray
TTITLE14=Ain't Gonna Study War No Mo'
TTITLE15=Standing in the Need of Prayer
TTITLE16=I Want to Be a Christian
TTITLE17=My Lawd's Writin' All the Time
TTITLE18=Where Shall I Be
TTITLE19=Where Shall I Go
TTITLE20=Every Time I Feel the Spirit
TTITLE21=I'll Never Turn Back No Mo'
TTITLE22=Walk Together Chillun
TTITLE23=King Jesus Is A-Listenin'
TTITLE24=Get Right, Stay Right
TTITLE25=Room Enough
TTITLE26=It Is Real
TTITLE27=Dese Bones Gwine Rise Again
EXTD=YEAR: 1939
EXTT0=
EXTT1=
EXTT2=
EXTT3=
EXTT4=
EXTT5=
EXTT6=
EXTT7=
EXTT8=
EXTT9=
EXTT10=
EXTT11=
EXTT12=
EXTT13=
EXTT14=
EXTT15=
EXTT16=
EXTT17=
EXTT18=
EXTT19=
EXTT20=
EXTT21=
EXTT22=
EXTT23=
EXTT24=
EXTT25=
EXTT26=
EXTT27=
PLAYORDER=
